<svg width="25" height="24" viewBox="0 0 25 24" fill="none" xmlns="http://www.w3.org/2000/svg">
<path fill-rule="evenodd" clip-rule="evenodd" d="M7.10039 8.00039C7.10039 6.26069 8.51069 4.85039 10.2504 4.85039C11.9901 4.85039 13.4004 6.26069 13.4004 8.00039C13.4004 9.74009 11.9901 11.1504 10.2504 11.1504C8.51069 11.1504 7.10039 9.74009 7.10039 8.00039ZM10.2504 3.15039C7.57181 3.15039 5.40039 5.32181 5.40039 8.00039C5.40039 10.679 7.57181 12.8504 10.2504 12.8504C12.929 12.8504 15.1004 10.679 15.1004 8.00039C15.1004 5.32181 12.929 3.15039 10.2504 3.15039ZM5.10039 17.9171C5.10039 17.514 5.42904 16.9983 6.46876 16.5392C7.45829 16.1022 8.83463 15.8504 10.2504 15.8504C11.6461 15.8504 13.0213 16.1435 14.0183 16.6051C14.5172 16.8361 14.8832 17.0916 15.1134 17.3382C15.335 17.5756 15.398 17.766 15.4003 17.9089C15.3922 17.9304 15.3554 17.9985 15.2131 18.1092C14.9946 18.279 14.6301 18.462 14.1153 18.6274C13.095 18.9553 11.6867 19.1504 10.2504 19.1504C8.55189 19.1504 7.15375 18.9525 6.21169 18.632C5.73803 18.4708 5.43145 18.2959 5.25808 18.1429C5.09932 18.0028 5.10024 17.929 5.10038 17.9178L5.10039 17.9171ZM15.4023 17.9014C15.4025 17.9014 15.4023 17.9034 15.4009 17.9072C15.4014 17.9033 15.4021 17.9014 15.4023 17.9014ZM10.2504 14.1504C8.66615 14.1504 7.04249 14.4274 5.78202 14.984C4.57174 15.5185 3.40039 16.4611 3.40039 17.9171C3.40039 18.546 3.71794 19.0511 4.13332 19.4176C4.53808 19.7748 5.07525 20.041 5.66409 20.2414C6.84703 20.6439 8.44889 20.8504 10.2504 20.8504C11.8141 20.8504 13.4058 20.641 14.6354 20.2459C15.2457 20.0498 15.8186 19.7917 16.2564 19.4514C16.6908 19.1137 17.1004 18.6038 17.1004 17.9171C17.1004 17.2275 16.7865 16.6393 16.3562 16.1782C15.9301 15.7217 15.3585 15.3522 14.7325 15.0624C13.4795 14.4823 11.8547 14.1504 10.2504 14.1504ZM16.4043 11.9189C16.4493 11.4516 16.8646 11.1093 17.3319 11.1543C18.5461 11.2713 19.6726 11.5869 20.5238 12.0792C21.3481 12.5559 22.1004 13.3204 22.1004 14.3737C22.1004 14.9196 21.8914 15.4174 21.4853 15.813C21.1023 16.1859 20.5795 16.4353 19.9822 16.6047C19.5306 16.7327 19.0607 16.4704 18.9326 16.0187C18.8046 15.5671 19.0669 15.0972 19.5186 14.9691C19.9661 14.8422 20.1933 14.6982 20.2992 14.5951C20.3818 14.5147 20.4004 14.454 20.4004 14.3737C20.4004 14.217 20.2832 13.9038 19.6728 13.5508C19.0892 13.2134 18.2157 12.9474 17.1689 12.8465C16.7016 12.8014 16.3593 12.3861 16.4043 11.9189ZM18.2504 3.15039C17.7809 3.15039 17.4004 3.53095 17.4004 4.00039C17.4004 4.46983 17.7809 4.85039 18.2504 4.85039C19.1617 4.85039 19.9004 5.58912 19.9004 6.50039C19.9004 7.41166 19.1617 8.15039 18.2504 8.15039C17.7809 8.15039 17.4004 8.53095 17.4004 9.00039C17.4004 9.46983 17.7809 9.85039 18.2504 9.85039C20.1005 9.85039 21.6004 8.35054 21.6004 6.50039C21.6004 4.65024 20.1005 3.15039 18.2504 3.15039Z" fill="#1445FE"/>
</svg>
